<svg width="65" height="65" viewBox="0 0 65 65" fill="none" xmlns="http://www.w3.org/2000/svg">
<g clip-path="url(#clip0_206_839)">
<path d="M11.5121 23.8672H62.1258V61.2777H11.5121V23.8672Z" fill="white"/>
<path d="M0.761719 32.4543V64.1926H64.2383V0.716019H0.761719V32.4543ZM51.9137 29.9152C53.434 30.268 54.8158 31.0632 55.8848 32.2004C56.4732 32.813 56.9848 33.4952 57.4082 34.2316C57.4082 34.3129 54.666 36.1664 52.9953 37.2023C52.9344 37.243 52.6906 36.9789 52.4215 36.5777C52.1165 36.0515 51.6831 35.6111 51.1619 35.2976C50.6406 34.9841 50.0485 34.8078 49.4406 34.7852C47.516 34.6531 46.277 35.6637 46.2871 37.3242C46.2712 37.7377 46.3659 38.1478 46.5613 38.5125C46.9828 39.391 47.7699 39.9141 50.2379 40.9805C54.7828 42.9355 56.7277 44.2254 57.9363 46.0586C59.2871 48.0898 59.5867 51.3703 58.6727 53.7977C57.657 56.4383 55.1688 58.2309 51.6496 58.825C50.0423 59.0091 48.4183 58.992 46.8152 58.7742C44.3583 58.3692 42.095 57.1896 40.3559 55.4074C39.7719 54.7625 38.6344 53.0816 38.7055 52.9598C38.8909 52.8222 39.086 52.6983 39.2895 52.5891L41.6406 51.2891L43.4637 50.2328L43.8445 50.7965C44.4873 51.7159 45.3053 52.4994 46.2516 53.102C48.2828 54.1684 51.0555 54.0211 52.4266 52.7871C52.8869 52.3349 53.1741 51.7356 53.2381 51.0935C53.3021 50.4514 53.139 49.8072 52.777 49.273C52.2691 48.5672 51.2535 47.973 48.4148 46.734C45.1395 45.3223 43.7277 44.4488 42.4379 43.0574C41.6327 42.1392 41.0382 41.056 40.6961 39.8836C40.4409 38.5442 40.4032 37.1725 40.5844 35.8211C41.2598 32.6574 43.6312 30.4484 47.0945 29.7934C48.6984 29.5949 50.3231 29.6394 51.9137 29.9254V29.9152ZM37.0145 32.5762V35.1762H28.7727V58.6523H22.9277V35.1711H14.6656V32.632C14.6399 31.7564 14.6602 30.8801 14.7266 30.0066C14.7672 29.9609 19.8047 29.9609 25.8984 29.9609H36.984L37.0145 32.5762Z" fill="#007ACC"/>
</g>
<defs>
<clipPath id="clip0_206_839">
<rect width="65" height="65" rx="7" fill="white"/>
</clipPath>
</defs>
</svg>
